# xmcd
#
# Track frame offsets:
#	150
#	11753
#	24808
#	39242
#	48822
#	58011
#	69298
#	77405
#	91073
#	108082
#	114969
#	125317
#	134864
#	142440
#	152001
#	166785
#	180398
#	192771
#	208549
#	224646
#	242843
#	257242
#	269963
#	279879
#	291174
#
# Disc length: 4038 seconds
#
# Revision: 0
# Processed by: cddbd v1.5.2PL0 Copyright (c) Steve Scherf et al.
# Submitted via: EZCDAudioConverter 1.3.3.1
#
DISCID=620fc419
DTITLE=Gilberto and Gilmar - Marcos Paiva and Jota Ferraz - Coletania
DYEAR=2013
DGENRE=
TTITLE0=Gilberto and Gilmar - Quero mais, mais
TTITLE1=Gilberto and Gilmar - Foto 3x4
TTITLE2=Gilberto and Gilmar - Paixão
TTITLE3=Gilberto and Gilmar - Pout pourri
TTITLE4=Gilberto and Gilmar - Bailão
TTITLE5=Gilberto and Gilmar - Fuscão Preto
TTITLE6=Gilberto and Gilmar - Vou tomar um pingão
TTITLE7=Gilberto and Gilmar - Homem pássaro
TTITLE8=Gilberto and Gilmar - Triste
TTITLE9=Gilberto and Gilmar - Assino comX
TTITLE10=Gilberto and Gilmar - Só mais uma vez
TTITLE11=Gilberto and Gilmar - Capa de revista
TTITLE12=Gilberto and Gilmar - Música da saudade
TTITLE13=Marcos Paiva and Jota Ferraz - Beijo Beijo
TTITLE14=Marcos Paiva and Jota Ferraz - Vida no sertão
TTITLE15=Marcos Paiva and Jota Ferraz - Rosas para uma flor
TTITLE16=Marcos Paiva and Jota Ferraz - O homem quando ama
TTITLE17=Marcos Paiva and Jota Ferraz - Você só diz não
TTITLE18=Marcos Paiva and Jota Ferraz - Esse amor ainda fere o peito
TTITLE19=Marcos Paiva and Jota Ferraz - Mudança
TTITLE20=Marcos Paiva and Jota Ferraz - Dois amantes
TTITLE21=Marcos Paiva and Jota Ferraz - Você não vê
TTITLE22=Marcos Paiva and Jota Ferraz - Porrada de amor
TTITLE23=Marcos Paiva and Jota Ferraz - Não tem perdão
TTITLE24=Marcos Paiva and Jota Ferraz - Vento da noite
EXTD=
EXTT0=
EXTT1=
EXTT2=
EXTT3=
EXTT4=
EXTT5=
EXTT6=
EXTT7=
EXTT8=
EXTT9=
EXTT10=
EXTT11=
EXTT12=
EXTT13=
EXTT14=
EXTT15=
EXTT16=
EXTT17=
EXTT18=
EXTT19=
EXTT20=
EXTT21=
EXTT22=
EXTT23=
EXTT24=
PLAYORDER=
